HIERARCHY
ROOT Hips
{
  OFFSET 5.80788e-005 67.184 3.4734
  CHANNELS 6 Xposition Yposition Zposition Zrotation Xrotation Yrotation
  JOINT Chest
  {
    OFFSET 0 8.7983 -4.7612
    CHANNELS 3 Zrotation Xrotation Yrotation
    JOINT Chest2
    {
      OFFSET 0 8.0291 0.4195
      CHANNELS 3 Zrotation Xrotation Yrotation
      JOINT Chest3
      {
        OFFSET 0 9.9351 -2.2114
        CHANNELS 3 Zrotation Xrotation Yrotation
        JOINT Neck
        {
          OFFSET 0 22.3885 -0.4656
          CHANNELS 3 Zrotation Xrotation Yrotation
          JOINT Head
          {
            OFFSET -0.0001 12.643 3.4389
            CHANNELS 3 Zrotation Xrotation Yrotation
            End Site
            {
              OFFSET 0.0001 17.6655 0.5274
            }
          }
        }
        JOINT LeftCollar
        {
          OFFSET 2.2603 21.606 7.4023
          CHANNELS 3 Zrotation Xrotation Yrotation
          JOINT LeftShoulder
          {
            OFFSET 13.5163 -1.1332 -5.0146
            CHANNELS 3 Zrotation Xrotation Yrotation
            JOINT LeftElbow
            {
              OFFSET -0.0995 -28.05 -0.2431
              CHANNELS 3 Zrotation Xrotation Yrotation
              JOINT LeftWrist
              {
                OFFSET 0.0679 -23.3996 -0.1402
                CHANNELS 3 Zrotation Xrotation Yrotation
                JOINT LeftFinger1
                {
                  OFFSET 0.7932 -9.069 2.5189
                  CHANNELS 3 Zrotation Xrotation Yrotation
                  JOINT LeftFinger11
                  {
                    OFFSET -0.8272 -3.3923 0.5977
                    CHANNELS 3 Zrotation Xrotation Yrotation
                    JOINT LeftFinger12
                    {
                      OFFSET -0.5649 -2.3158 0.4082
                      CHANNELS 3 Zrotation Xrotation Yrotation
                      End Site
                      {
                        OFFSET -0.4919 -1.6479 0.2673
                      }
                    }
                  }
                }
                JOINT LeftFinger2
                {
                  OFFSET 0.9159 -9.2044 0.2193
                  CHANNELS 3 Zrotation Xrotation Yrotation
                  JOINT LeftFinger21
                  {
                    OFFSET 0.0117 -4.1944 -0.0248
                    CHANNELS 3 Zrotation Xrotation Yrotation
                    JOINT LeftFinger22
                    {
                      OFFSET 0.0071 -2.3249 -0.0142
                      CHANNELS 3 Zrotation Xrotation Yrotation
                      End Site
                      {
                        OFFSET -0.1475 -2.0882 0.0028
                      }
                    }
                  }
                }
                JOINT LeftFinger3
                {
                  OFFSET 0.6113 -8.7231 -2.0637
                  CHANNELS 3 Zrotation Xrotation Yrotation
                  JOINT LeftFinger31
                  {
                    OFFSET -0.1927 -3.8059 -0.2383
                    CHANNELS 3 Zrotation Xrotation Yrotation
                    JOINT LeftFinger32
                    {
                      OFFSET -0.1091 -2.1688 -0.1362
                      CHANNELS 3 Zrotation Xrotation Yrotation
                      End Site
                      {
                        OFFSET -0.2358 -1.9176 -0.0906
                      }
                    }
                  }
                }
                JOINT LeftFinger4
                {
                  OFFSET -0.6151 -8.0947 -3.5641
                  CHANNELS 3 Zrotation Xrotation Yrotation
                  JOINT LeftFinger41
                  {
                    OFFSET -0.4882 -2.341 -0.6462
                    CHANNELS 3 Zrotation Xrotation Yrotation
                    JOINT LeftFinger42
                    {
                      OFFSET -0.3575 -1.7167 -0.4742
                      CHANNELS 3 Zrotation Xrotation Yrotation
                      End Site
                      {
                        OFFSET -0.4187 -1.5237 -0.3496
                      }
                    }
                  }
                }
                JOINT LeftFinger0
                {
                  OFFSET -1.42 -1.8761 1.4223
                  CHANNELS 3 Zrotation Xrotation Yrotation
                  JOINT LeftFinger01
                  {
                    OFFSET -1.1471 -3.4929 2.6334
                    CHANNELS 3 Zrotation Xrotation Yrotation
                    JOINT LeftFinger02
                    {
                      OFFSET -0.823 -2.3 1.6571
                      CHANNELS 3 Zrotation Xrotation Yrotation
                      End Site
                      {
                        OFFSET -0.5822 -1.6914 1.1582
                      }
                    }
                  }
                }
              }
            }
          }
        }
        JOINT RightCollar
        {
          OFFSET -2.2603 21.606 7.4023
          CHANNELS 3 Zrotation Xrotation Yrotation
          JOINT RightShoulder
          {
            OFFSET -13.5187 -1.1334 -5.0155
            CHANNELS 3 Zrotation Xrotation Yrotation
            JOINT RightElbow
            {
              OFFSET 0.0994 -28.0499 -0.2431
              CHANNELS 3 Zrotation Xrotation Yrotation
              JOINT RightWrist
              {
                OFFSET -0.0679 -23.3996 -0.1402
                CHANNELS 3 Zrotation Xrotation Yrotation
                JOINT RightFinger1
                {
                  OFFSET -0.7932 -9.0691 2.5189
                  CHANNELS 3 Zrotation Xrotation Yrotation
                  JOINT RightFinger11
                  {
                    OFFSET 0.8272 -3.3923 0.5977
                    CHANNELS 3 Zrotation Xrotation Yrotation
                    JOINT RightFinger12
                    {
                      OFFSET 0.565 -2.3158 0.4082
                      CHANNELS 3 Zrotation Xrotation Yrotation
                      End Site
                      {
                        OFFSET 0.4919 -1.6479 0.2673
                      }
                    }
                  }
                }
                JOINT RightFinger2
                {
                  OFFSET -0.916 -9.2044 0.2193
                  CHANNELS 3 Zrotation Xrotation Yrotation
                  JOINT RightFinger21
                  {
                    OFFSET -0.0117 -4.1944 -0.0248
                    CHANNELS 3 Zrotation Xrotation Yrotation
                    JOINT RightFinger22
                    {
                      OFFSET -0.0071 -2.3249 -0.0142
                      CHANNELS 3 Zrotation Xrotation Yrotation
                      End Site
                      {
                        OFFSET 0.1475 -2.0882 0.0028
                      }
                    }
                  }
                }
                JOINT RightFinger3
                {
                  OFFSET -0.6113 -8.7231 -2.0637
                  CHANNELS 3 Zrotation Xrotation Yrotation
                  JOINT RightFinger31
                  {
                    OFFSET 0.1927 -3.8059 -0.2383
                    CHANNELS 3 Zrotation Xrotation Yrotation
                    JOINT RightFinger32
                    {
                      OFFSET 0.1091 -2.1688 -0.1362
                      CHANNELS 3 Zrotation Xrotation Yrotation
                      End Site
                      {
                        OFFSET 0.2358 -1.9176 -0.0906
                      }
                    }
                  }
                }
                JOINT RightFinger4
                {
                  OFFSET 0.6151 -8.0947 -3.564
                  CHANNELS 3 Zrotation Xrotation Yrotation
                  JOINT RightFinger41
                  {
                    OFFSET 0.4882 -2.341 -0.6462
                    CHANNELS 3 Zrotation Xrotation Yrotation
                    JOINT RightFinger42
                    {
                      OFFSET 0.3574 -1.7166 -0.4742
                      CHANNELS 3 Zrotation Xrotation Yrotation
                      End Site
                      {
                        OFFSET 0.4187 -1.5237 -0.3496
                      }
                    }
                  }
                }
                JOINT RightFinger0
                {
                  OFFSET 1.4199 -1.8761 1.4221
                  CHANNELS 3 Zrotation Xrotation Yrotation
                  JOINT RightFinger01
                  {
                    OFFSET 1.1472 -3.4929 2.6336
                    CHANNELS 3 Zrotation Xrotation Yrotation
                    JOINT RightFinger02
                    {
                      OFFSET 0.8229 -2.3 1.6571
                      CHANNELS 3 Zrotation Xrotation Yrotation
                      End Site
                      {
                        OFFSET 0.5822 -1.6914 1.1582
                      }
                    }
                  }
                }
              }
            }
          }
        }
      }
    }
  }
  JOINT RightHip
  {
    OFFSET -9.412 3.9771 -0.7758
    CHANNELS 3 Zrotation Xrotation Yrotation
    JOINT RightKnee
    {
      OFFSET -0.7531 -40.938 0
      CHANNELS 3 Zrotation Xrotation Yrotation
      JOINT RightAnkle
      {
        OFFSET 0 -40.1986 0
        CHANNELS 3 Zrotation Xrotation Yrotation
        JOINT RightToe
        {
          OFFSET 0 -4.4182 9.239
          CHANNELS 3 Zrotation Xrotation Yrotation
          End Site
          {
            OFFSET 0 0 6.1981
          }
        }
      }
    }
  }
  JOINT LeftHip
  {
    OFFSET 9.4119 3.9773 -0.7758
    CHANNELS 3 Zrotation Xrotation Yrotation
    JOINT LeftKnee
    {
      OFFSET 0.7532 -40.9383 0
      CHANNELS 3 Zrotation Xrotation Yrotation
      JOINT LeftAnkle
      {
        OFFSET 0 -40.1986 0
        CHANNELS 3 Zrotation Xrotation Yrotation
        JOINT LeftToe
        {
          OFFSET 0 -4.4182 9.239
          CHANNELS 3 Zrotation Xrotation Yrotation
          End Site
          {
            OFFSET 0 0 6.1981
          }
        }
      }
    }
  }
}
MOTION
Frames:	6
Frame Time:	0.0333333
5.80788e-005 67.184 3.4734 0 0 -0 0 0 -0 0 0 -0 0 0 -0 -0 0 0.00599323 0 0 -0 0 0 -12.4954 88.1196 14.2451 10.6914 -0.00159367 -0.00239376 0.000738453 -8.42822e-005 7.03872e-005 -7.27232e-007 -0 -1.98785e-016 -0 1.49089e-016 -3.97569e-016 1.59028e-015 3.97569e-016 -1.98785e-016 -0 -0 -1.98785e-016 -0 -0.0128247 0.00232725 8.6223e-005 4.47266e-016 -3.97569e-016 -0 -0 -1.98785e-016 -0 -0.0160348 0.00299288 0.000856004 -3.47873e-016 -3.97569e-016 -1.59028e-015 -0 -1.98785e-016 -0 -0.0125866 0.00312087 0.00282552 -1.49089e-016 3.97569e-016 1.59028e-015 -0 -1.98785e-016 -0 1.49089e-016 -3.97569e-016 1.59028e-015 3.97569e-016 -1.98785e-016 -0 -0.865661 0.165729 7.04459 -88.0329 10.2057 -10.5567 0.00157301 -0.00248645 -0.000787991 6.52513e-005 3.86626e-005 1.05041e-005 9.93923e-017 -1.19271e-015 -0 -1.98785e-016 -3.97569e-016 1.59028e-015 -0 -3.97569e-016 -0 9.93923e-017 -1.19271e-015 -0 0.0129471 0.00231624 -8.52245e-005 -1.98785e-016 0 -0 9.93923e-017 -1.19271e-015 -0 0.0163174 0.0030318 -0.00087169 -1.98785e-016 7.95139e-016 -3.18055e-015 9.93923e-017 -1.19271e-015 -0 0.0146103 0.00368741 -0.00326732 -2.98177e-016 3.97569e-016 1.59028e-015 9.93923e-017 -1.19271e-015 -0 -1.98785e-016 -3.97569e-016 1.59028e-015 -0 -3.97569e-016 -0 3.42485 1.36937 -0.0640303 0.000136572 0.69354 0.00145564 -3.42573 -2.06297 -0.0607933 -3.19502e-024 0 -1.48106e-024 -3.42498 1.36123 0.0639712 -6.769e-005 0.712612 -0.0012277 3.42582 -2.07388 0.0612819 2.55305e-023 0 -2.31416e-026 
42.3307 26.4727 41.7027 -2.54848e-007 68.1914 2.01326e-007 -0.439444 11.3434 -0.011207 -0.904051 22.6867 0.0705662 -0.90405 22.6867 0.0705661 1.34686e-005 -0.467023 2.03903e-006 -0.0148368 -0.469102 -0.00474224 -14.928 -3.74365 -7.97259 158.079 -57.2451 43.2239 3.5686 -16.1653 10.6308 63.3032 -8.28754 7.21673 -3.18055e-015 3.97569e-016 -2.18663e-015 -6.36111e-015 7.95139e-016 -3.97569e-016 -3.18055e-015 1.59028e-015 2.98177e-015 -3.18055e-015 3.97569e-016 -2.18663e-015 -0.0127512 0.00231168 7.53369e-005 6.36111e-015 -2.38542e-015 1.78906e-015 -3.18055e-015 3.97569e-016 -2.18663e-015 -0.0160345 0.00298227 0.000848509 1.33818e-006 -3.57907e-007 6.71936e-007 -3.18055e-015 3.97569e-016 -2.18663e-015 -0.012439 0.00308062 0.00279515 -4.68978e-032 7.95139e-016 3.37934e-015 -3.18055e-015 3.97569e-016 -2.18663e-015 -6.36111e-015 7.95139e-016 -3.97569e-016 -3.18055e-015 1.59028e-015 2.98177e-015 14.0495 -3.50523 2.48979 -164.896 -57.07 -52.3983 -3.39945 -15.9889 -10.9307 -63.299 -7.37619 -8.42775 3.18055e-015 1.03368e-014 -3.97569e-016 -2.64834e-031 1.27222e-014 1.19271e-015 3.18055e-015 1.43125e-014 1.19271e-015 3.18055e-015 1.03368e-014 -3.97569e-016 0.0129046 0.00231945 -8.16479e-005 -5.51738e-032 -7.95139e-016 -3.97569e-015 3.18055e-015 1.03368e-014 -3.97569e-016 0.0163282 0.00303483 -0.000864801 -5.33735e-006 -3.93215e-006 1.07647e-005 3.18055e-015 1.03368e-014 -3.97569e-016 0.0145983 0.00368319 -0.00325755 -3.18055e-015 2.38542e-015 2.78299e-015 3.18055e-015 1.03368e-014 -3.97569e-016 -2.64834e-031 1.27222e-014 1.19271e-015 3.18055e-015 1.43125e-014 1.19271e-015 -21.8131 -69.9828 -26.887 -170.975 70.1054 170.054 -11.7291 48.3698 2.97506 -5.66142e-007 -2.36295e-008 -2.08896e-007 21.7161 -69.9998 26.6918 171.277 70.1008 -170.327 11.7138 48.3559 -3.00297 1.93942e-007 -1.96826e-008 -8.84992e-008 
39.8407 28.6797 39.1542 -9.66733e-009 64.8852 1.78055e-008 -0.410187 10.2057 -0.0236553 -0.83646 20.4114 0.0290519 -0.836462 20.4114 0.0290523 8.47357e-006 -0.724088 1.36151e-006 -0.0679116 -0.761923 -0.0218405 -14.5632 -2.28998 -7.48039 156.794 -53.0869 43.3821 3.36491 -15.2147 10.0322 59.1037 -8.23036 6.37998 3.10118e-006 2.08915e-006 2.31414e-006 -3.18055e-015 0 -0 1.797e-006 -4.7529e-007 2.46262e-007 3.10118e-006 2.08915e-006 2.31414e-006 -0.0127736 0.00232319 8.76165e-005 -6.21814e-006 -1.32112e-006 -2.03617e-006 3.10118e-006 2.08915e-006 2.31414e-006 -0.0160481 0.00299005 0.000855811 4.75969e-007 -2.38026e-007 7.70875e-007 3.10118e-006 2.08915e-006 2.31414e-006 -0.0126109 0.00312914 0.00283126 8.56244e-007 -1.23147e-005 -3.88766e-006 3.10118e-006 2.08915e-006 2.31414e-006 -3.18055e-015 0 -0 1.797e-006 -4.7529e-007 2.46262e-007 13.6021 -2.02681 2.15947 -162.323 -53.0612 -51.4885 -3.20345 -15.0472 -10.3174 -59.127 -7.42732 -7.58726 -4.4076e-006 2.71745e-006 -5.22741e-007 5.54872e-007 2.33624e-007 4.84695e-007 -2.70186e-006 -1.05379e-006 -3.61523e-006 -4.4076e-006 2.71745e-006 -5.22741e-007 0.0129782 0.00231427 -8.07423e-005 -1.87021e-006 -1.25674e-006 -2.88825e-006 -4.4076e-006 2.71745e-006 -5.22741e-007 0.016346 0.00303248 -0.000872671 3.42578e-006 -1.20135e-006 2.66519e-006 -4.4076e-006 2.71745e-006 -5.22741e-007 0.0146201 0.00368896 -0.00327026 -3.36753e-006 1.25424e-005 -1.27066e-005 -4.4076e-006 2.71745e-006 -5.22741e-007 5.54872e-007 2.33624e-007 4.84695e-007 -2.70186e-006 -1.05379e-006 -3.61523e-006 -16.875 -67.1497 -22.0624 -168.692 76.2319 168.07 -11.0872 45.1486 2.74519 2.39573e-007 -2.80886e-006 3.51625e-007 16.7921 -67.16 21.8834 169.096 76.2351 -168.44 11.0708 45.1359 -2.7699 1.21272e-007 4.79983e-006 -2.62391e-007 
39.8407 28.7851 38.9702 7.03568e-008 65.5514 -7.89249e-008 -0.408766 9.75751 -0.0301077 -0.830762 19.5151 0.0119122 -0.830763 19.5151 0.0119125 6.95248e-006 -0.993045 1.12067e-006 -0.118999 -1.06474 -0.038551 -15.0475 -1.12829 -6.75219 157.434 -53.2859 43.892 3.36507 -15.2148 10.0322 58.7004 -8.38524 6.19826 -0 0 3.97569e-016 -0 -3.18055e-015 -0 2.75869e-032 -7.95139e-016 1.98785e-015 -0 0 3.97569e-016 -0.0128163 0.00232255 8.93563e-005 4.96564e-032 -2.38542e-015 1.19271e-015 -0 0 3.97569e-016 -0.0160358 0.0029846 0.000852478 -3.18055e-015 -2.38542e-015 3.97569e-016 -0 0 3.97569e-016 -0.0125791 0.00312495 0.00282997 2.83288e-006 -3.2879e-006 -1.12565e-005 -0 0 3.97569e-016 -0 -3.18055e-015 -0 2.75869e-032 -7.95139e-016 1.98785e-015 14.005 -0.835709 1.58482 -162.878 -53.1825 -51.9366 -3.20341 -15.0471 -10.3174 -58.7431 -7.60348 -7.43593 5.51738e-032 -1.59028e-015 1.98785e-015 -0 0 3.97569e-016 -3.18055e-015 0 -0 5.51738e-032 -1.59028e-015 1.98785e-015 0.0129184 0.00230494 -8.36947e-005 -5.51738e-032 1.59028e-015 1.98785e-015 5.51738e-032 -1.59028e-015 1.98785e-015 0.0163007 0.00302782 -0.000873793 0 0 -1.59028e-015 5.51738e-032 -1.59028e-015 1.98785e-015 0.0146294 0.00368671 -0.00326198 3.18055e-015 4.77083e-015 3.97569e-016 5.51738e-032 -1.59028e-015 1.98785e-015 -0 0 3.97569e-016 -3.18055e-015 0 -0 -17.4899 -68.0489 -22.699 -168.692 76.2346 168.068 -11.087 45.1478 2.74511 -3.97569e-016 1.494e-010 -0 17.4082 -68.0647 22.5189 169.096 76.2341 -168.441 11.0706 45.1351 -2.76984 -1.76105e-007 -2.80117e-006 1.20089e-007 
39.8407 28.8914 38.7869 5.1093e-008 66.2177 -3.19446e-008 -0.407267 9.30659 -0.0365357 -0.825123 18.6133 -0.00508234 -0.825124 18.6133 -0.00508203 5.92779e-006 -1.26218 8.00405e-007 -0.170223 -1.36777 -0.055547 -15.5471 0.028471 -6.01347 158.081 -53.4813 44.4084 3.36502 -15.2147 10.0321 58.2965 -8.53877 6.01543 -3.18055e-015 2.38542e-015 -0 -3.18055e-015 7.95139e-016 7.95139e-016 -3.18055e-015 3.97569e-015 3.97569e-016 -3.18055e-015 2.38542e-015 -0 -0.0128079 0.00231536 7.08088e-005 6.36111e-015 -5.56597e-015 9.14409e-015 -3.18055e-015 2.38542e-015 -0 -0.0160195 0.0029885 0.000856121 -4.0155e-006 -5.61571e-006 -9.10635e-006 -3.18055e-015 2.38542e-015 -0 -0.0125517 0.00310183 0.00280192 3.18055e-015 0 -3.97569e-016 -3.18055e-015 2.38542e-015 -0 -3.18055e-015 7.95139e-016 7.95139e-016 -3.18055e-015 3.97569e-015 3.97569e-016 14.4202 0.352481 1.00123 -163.436 -53.3013 -52.3878 -3.20345 -15.0472 -10.3173 -58.3586 -7.77862 -7.2833 3.18055e-015 -7.95139e-016 -7.95139e-016 3.18055e-015 0 7.95139e-016 1.65521e-032 7.95139e-016 -1.19271e-015 3.18055e-015 -7.95139e-016 -7.95139e-016 0.0129486 0.002316 -9.10145e-005 -6.36111e-015 1.59028e-015 1.59028e-015 3.18055e-015 -7.95139e-016 -7.95139e-016 0.0162977 0.00303869 -0.00086719 -6.36111e-015 7.15625e-015 -9.93923e-015 3.18055e-015 -7.95139e-016 -7.95139e-016 0.0146777 0.00369325 -0.00328082 -3.18055e-015 -1.59028e-015 -1.98785e-015 3.18055e-015 -7.95139e-016 -7.95139e-016 3.18055e-015 0 7.95139e-016 1.65521e-032 7.95139e-016 -1.19271e-015 -18.1667 -68.9477 -23.3968 -168.692 76.2346 168.068 -11.0868 45.1471 2.74508 1.98785e-015 1.81699e-010 7.95139e-016 18.0753 -68.9666 23.2056 169.096 76.2338 -168.442 11.0704 45.1344 -2.76981 5.32635e-007 1.30749e-005 1.14883e-006 
39.8407 28.9985 38.6044 1.46993e-007 66.8841 -7.05941e-008 -0.405692 8.85362 -0.0429265 -0.819553 17.7074 -0.0219043 -0.819555 17.7075 -0.0219038 6.75496e-006 -1.5315 1.56771e-006 -0.221584 -1.67107 -0.072831 -16.0621 1.17959 -5.26387 158.733 -53.6736 44.9305 3.36509 -15.2147 10.032 57.8918 -8.6911 5.83139 1.77981e-006 -4.61021e-008 2.10356e-007 -1.77981e-006 4.61021e-008 -2.10356e-007 2.23527e-007 -2.27627e-006 3.47684e-007 1.77981e-006 -4.61021e-008 2.10356e-007 -0.0128311 0.00232652 7.87879e-005 -3.18055e-015 1.27222e-014 -1.19271e-015 1.77981e-006 -4.61021e-008 2.10356e-007 -0.016031 0.00299489 0.000852611 -2.20695e-032 -1.59028e-015 -7.95139e-016 1.77981e-006 -4.61021e-008 2.10356e-007 -0.0126743 0.00314785 0.0028377 2.20695e-032 -1.59028e-015 7.95139e-016 1.77981e-006 -4.61021e-008 2.10356e-007 -1.77981e-006 4.61021e-008 -2.10356e-007 2.23527e-007 -2.27627e-006 3.47684e-007 14.848 1.53725 0.408395 -163.997 -53.4174 -52.8423 -3.20344 -15.0471 -10.3173 -57.9733 -7.95281 -7.12943 -6.62086e-032 -2.38542e-015 -1.59028e-015 3.18055e-015 -7.95139e-016 -7.95139e-016 6.36111e-015 1.59028e-015 -7.95139e-016 -6.62086e-032 -2.38542e-015 -1.59028e-015 0.0129489 0.00229895 -7.37646e-005 -1.65521e-032 -7.95139e-016 -1.19271e-015 -6.62086e-032 -2.38542e-015 -1.59028e-015 0.0163126 0.00303164 -0.000867572 -3.18055e-015 0 -0 -6.62086e-032 -2.38542e-015 -1.59028e-015 0.0145832 0.00367293 -0.00326278 6.36111e-015 1.59028e-015 1.19271e-015 -6.62086e-032 -2.38542e-015 -1.59028e-015 3.18055e-015 -7.95139e-016 -7.95139e-016 6.36111e-015 1.59028e-015 -7.95139e-016 -18.9138 -69.846 -24.1641 -168.693 76.231 168.072 -11.0867 45.1464 2.74505 3.97569e-016 6.36111e-015 -7.95139e-016 18.8053 -69.8665 23.9549 169.097 76.2326 -168.443 11.0702 45.1337 -2.76975 -2.51899e-007 1.05322e-005 1.69563e-006 
